<?xml version="1.0" encoding="UTF-8"?>
<svg id="Layer_1" data-name="Layer 1" xmlns="http://www.w3.org/2000/svg" viewBox="0 0 770 769">
  <defs>
    <style>
      .cls-1, .cls-2, .cls-3, .cls-4 {
        opacity: .3;
      }

      .cls-1, .cls-5 {
        font-family: NHaasGroteskDSPro-95Blk, 'Neue Haas Grotesk Display Pro';
        font-size: 69.79px;
      }

      .cls-6 {
        stroke-width: 2px;
      }

      .cls-6, .cls-2 {
        fill: none;
      }

      .cls-6, .cls-2, .cls-3 {
        stroke: #231f20;
        stroke-miterlimit: 10;
      }

      .cls-2, .cls-3 {
        stroke-width: 4px;
      }

      .cls-3 {
        fill: #fff;
      }

      .cls-5 {
        fill: #186ec4;
      }
    </style>
  </defs>
  <text class="cls-5" transform="translate(533.62 581.64)"><tspan x="0" y="0">K</tspan></text>
  <text class="cls-5" transform="translate(184.24 495.45)"><tspan x="0" y="0">U</tspan></text>
  <text class="cls-5" transform="translate(359.83 410.32)"><tspan x="0" y="0">D</tspan></text>
  <rect class="cls-2" x="2.5" y="2" width="765" height="765"/>
  <rect class="cls-3" x="2.5" y="2" width="255" height="255"/>
  <rect class="cls-2" x="257.5" y="2" width="255" height="255"/>
  <rect class="cls-2" x="257.5" y="2" width="255" height="255"/>
  <rect class="cls-3" x="512.5" y="2" width="255" height="255"/>
  <g class="cls-4">
    <rect class="cls-6" x="1" y="2" width="86" height="86"/>
    <rect class="cls-6" x="87" y="2" width="86" height="86"/>
    <rect class="cls-6" x="173" y="2" width="86" height="86"/>
    <rect class="cls-6" x="1" y="86.5" width="86" height="86"/>
    <rect class="cls-6" x="87" y="86.5" width="86" height="86"/>
    <rect class="cls-6" x="173" y="86.5" width="86" height="86"/>
    <rect class="cls-6" x="1" y="171" width="86" height="86"/>
    <rect class="cls-6" x="87" y="171" width="86" height="86"/>
    <rect class="cls-6" x="173" y="171" width="86" height="86"/>
  </g>
  <g class="cls-4">
    <rect class="cls-6" x="256" y="2" width="86" height="86"/>
    <rect class="cls-6" x="342" y="2" width="86" height="86"/>
    <rect class="cls-6" x="428" y="2" width="86" height="86"/>
    <rect class="cls-6" x="256" y="86.5" width="86" height="86"/>
    <rect class="cls-6" x="342" y="86.5" width="86" height="86"/>
    <rect class="cls-6" x="428" y="86.5" width="86" height="86"/>
    <rect class="cls-6" x="256" y="171" width="86" height="86"/>
    <rect class="cls-6" x="342" y="171" width="86" height="86"/>
    <rect class="cls-6" x="428" y="171" width="86" height="86"/>
  </g>
  <g class="cls-4">
    <rect class="cls-6" x="511" y="2" width="86" height="86"/>
    <rect class="cls-6" x="597" y="2" width="86" height="86"/>
    <rect class="cls-6" x="683" y="2" width="86" height="86"/>
    <rect class="cls-6" x="511" y="86.5" width="86" height="86"/>
    <rect class="cls-6" x="597" y="86.5" width="86" height="86"/>
    <rect class="cls-6" x="683" y="86.5" width="86" height="86"/>
    <rect class="cls-6" x="511" y="171" width="86" height="86"/>
    <rect class="cls-6" x="597" y="171" width="86" height="86"/>
    <rect class="cls-6" x="683" y="171" width="86" height="86"/>
  </g>
  <rect class="cls-2" x="2.5" y="257" width="255" height="255"/>
  <rect class="cls-2" x="257.5" y="257" width="255" height="255"/>
  <rect class="cls-2" x="512.5" y="257" width="255" height="255"/>
  <rect class="cls-2" x="2.5" y="512" width="255" height="255"/>
  <rect class="cls-2" x="257.5" y="512" width="255" height="255"/>
  <rect class="cls-2" x="512.5" y="512" width="255" height="255"/>
  <g class="cls-4">
    <rect class="cls-6" x="1" y="257" width="86" height="86"/>
    <rect class="cls-6" x="87" y="257" width="86" height="86"/>
    <rect class="cls-6" x="173" y="257" width="86" height="86"/>
    <rect class="cls-6" x="1" y="341.5" width="86" height="86"/>
    <rect class="cls-6" x="87" y="341.5" width="86" height="86"/>
    <rect class="cls-6" x="173" y="341.5" width="86" height="86"/>
    <rect class="cls-6" x="1" y="426" width="86" height="86"/>
    <rect class="cls-6" x="87" y="426" width="86" height="86"/>
    <rect class="cls-6" x="173" y="426" width="86" height="86"/>
  </g>
  <g class="cls-4">
    <rect class="cls-6" x="256" y="257" width="86" height="86"/>
    <rect class="cls-6" x="342" y="257" width="86" height="86"/>
    <rect class="cls-6" x="428" y="257" width="86" height="86"/>
    <rect class="cls-6" x="256" y="341.5" width="86" height="86"/>
    <rect class="cls-6" x="342" y="341.5" width="86" height="86"/>
    <rect class="cls-6" x="428" y="341.5" width="86" height="86"/>
    <rect class="cls-6" x="256" y="426" width="86" height="86"/>
    <rect class="cls-6" x="342" y="426" width="86" height="86"/>
    <rect class="cls-6" x="428" y="426" width="86" height="86"/>
  </g>
  <g class="cls-4">
    <rect class="cls-6" x="511" y="257" width="86" height="86"/>
    <rect class="cls-6" x="597" y="257" width="86" height="86"/>
    <rect class="cls-6" x="683" y="257" width="86" height="86"/>
    <rect class="cls-6" x="511" y="341.5" width="86" height="86"/>
    <rect class="cls-6" x="597" y="341.5" width="86" height="86"/>
    <rect class="cls-6" x="683" y="341.5" width="86" height="86"/>
    <rect class="cls-6" x="511" y="426" width="86" height="86"/>
    <rect class="cls-6" x="597" y="426" width="86" height="86"/>
    <rect class="cls-6" x="683" y="426" width="86" height="86"/>
  </g>
  <g class="cls-4">
    <rect class="cls-6" x="1" y="512" width="86" height="86"/>
    <rect class="cls-6" x="87" y="512" width="86" height="86"/>
    <rect class="cls-6" x="173" y="512" width="86" height="86"/>
    <rect class="cls-6" x="1" y="596.5" width="86" height="86"/>
    <rect class="cls-6" x="87" y="596.5" width="86" height="86"/>
    <rect class="cls-6" x="173" y="596.5" width="86" height="86"/>
    <rect class="cls-6" x="1" y="681" width="86" height="86"/>
    <rect class="cls-6" x="87" y="681" width="86" height="86"/>
    <rect class="cls-6" x="173" y="681" width="86" height="86"/>
  </g>
  <g class="cls-4">
    <rect class="cls-6" x="256" y="512" width="86" height="86"/>
    <rect class="cls-6" x="342" y="512" width="86" height="86"/>
    <rect class="cls-6" x="428" y="512" width="86" height="86"/>
    <rect class="cls-6" x="256" y="596.5" width="86" height="86"/>
    <rect class="cls-6" x="342" y="596.5" width="86" height="86"/>
    <rect class="cls-6" x="428" y="596.5" width="86" height="86"/>
    <rect class="cls-6" x="256" y="681" width="86" height="86"/>
    <rect class="cls-6" x="342" y="681" width="86" height="86"/>
    <rect class="cls-6" x="428" y="681" width="86" height="86"/>
  </g>
  <g class="cls-4">
    <rect class="cls-6" x="511" y="512" width="86" height="86"/>
    <rect class="cls-6" x="597" y="512" width="86" height="86"/>
    <rect class="cls-6" x="683" y="512" width="86" height="86"/>
    <rect class="cls-6" x="511" y="596.5" width="86" height="86"/>
    <rect class="cls-6" x="597" y="596.5" width="86" height="86"/>
    <rect class="cls-6" x="683" y="596.5" width="86" height="86"/>
    <rect class="cls-6" x="511" y="681" width="86" height="86"/>
    <rect class="cls-6" x="597" y="681" width="86" height="86"/>
    <rect class="cls-6" x="683" y="681" width="86" height="86"/>
  </g>
  <text class="cls-5" transform="translate(107.01 409.14)"><tspan x="0" y="0">S</tspan></text>
  <text class="cls-1" transform="translate(29.02 70.07)"><tspan x="0" y="0">1</tspan></text>
  <text class="cls-1" transform="translate(111.41 70.07)"><tspan x="0" y="0">2</tspan></text>
  <text class="cls-1" transform="translate(193.11 70.07)"><tspan x="0" y="0">3</tspan></text>
  <text class="cls-1" transform="translate(22.38 152.63)"><tspan x="0" y="0">4</tspan></text>
  <text class="cls-1" transform="translate(110.48 152.63)"><tspan x="0" y="0">5</tspan></text>
  <text class="cls-1" transform="translate(194.63 151.44)"><tspan x="0" y="0">6</tspan></text>
  <text class="cls-1" transform="translate(26.91 236.37)"><tspan x="0" y="0">7</tspan></text>
  <text class="cls-1" transform="translate(109.29 236.37)"><tspan x="0" y="0">8</tspan></text>
  <text class="cls-1" transform="translate(191 236.37)"><tspan x="0" y="0">9</tspan></text>
  <text class="cls-1" transform="translate(281.11 70.66)"><tspan x="0" y="0">1</tspan></text>
  <text class="cls-1" transform="translate(363.49 70.66)"><tspan x="0" y="0">2</tspan></text>
  <text class="cls-1" transform="translate(445.19 70.66)"><tspan x="0" y="0">3</tspan></text>
  <text class="cls-1" transform="translate(274.46 153.22)"><tspan x="0" y="0">4</tspan></text>
  <text class="cls-1" transform="translate(362.56 153.22)"><tspan x="0" y="0">5</tspan></text>
  <text class="cls-1" transform="translate(446.72 152.03)"><tspan x="0" y="0">6</tspan></text>
  <text class="cls-1" transform="translate(278.99 236.96)"><tspan x="0" y="0">7</tspan></text>
  <text class="cls-1" transform="translate(443.08 236.96)"><tspan x="0" y="0">9</tspan></text>
  <text class="cls-1" transform="translate(536.89 71.85)"><tspan x="0" y="0">1</tspan></text>
  <text class="cls-1" transform="translate(619.27 71.85)"><tspan x="0" y="0">2</tspan></text>
  <text class="cls-1" transform="translate(700.97 71.85)"><tspan x="0" y="0">3</tspan></text>
  <text class="cls-1" transform="translate(530.25 154.4)"><tspan x="0" y="0">4</tspan></text>
  <text class="cls-1" transform="translate(618.35 154.4)"><tspan x="0" y="0">5</tspan></text>
  <text class="cls-1" transform="translate(702.5 153.22)"><tspan x="0" y="0">6</tspan></text>
  <text class="cls-1" transform="translate(534.78 238.15)"><tspan x="0" y="0">7</tspan></text>
  <text class="cls-1" transform="translate(617.16 238.15)"><tspan x="0" y="0">8</tspan></text>
  <text class="cls-1" transform="translate(698.86 238.15)"><tspan x="0" y="0">9</tspan></text>
  <text class="cls-1" transform="translate(27.94 327.17)"><tspan x="0" y="0">1</tspan></text>
  <text class="cls-1" transform="translate(110.32 327.17)"><tspan x="0" y="0">2</tspan></text>
  <text class="cls-1" transform="translate(192.03 327.17)"><tspan x="0" y="0">3</tspan></text>
  <text class="cls-1" transform="translate(21.3 409.73)"><tspan x="0" y="0">4</tspan></text>
  <text class="cls-1" transform="translate(193.55 408.54)"><tspan x="0" y="0">6</tspan></text>
  <text class="cls-1" transform="translate(25.83 493.47)"><tspan x="0" y="0">7</tspan></text>
  <text class="cls-1" transform="translate(108.21 493.47)"><tspan x="0" y="0">8</tspan></text>
  <text class="cls-1" transform="translate(281.11 325.39)"><tspan x="0" y="0">1</tspan></text>
  <text class="cls-1" transform="translate(363.49 325.39)"><tspan x="0" y="0">2</tspan></text>
  <text class="cls-1" transform="translate(445.19 325.39)"><tspan x="0" y="0">3</tspan></text>
  <text class="cls-1" transform="translate(274.46 407.95)"><tspan x="0" y="0">4</tspan></text>
  <text class="cls-1" transform="translate(363.47 239.33)"><tspan x="0" y="0">8</tspan></text>
  <text class="cls-1" transform="translate(446.72 406.76)"><tspan x="0" y="0">6</tspan></text>
  <text class="cls-1" transform="translate(278.99 491.69)"><tspan x="0" y="0">7</tspan></text>
  <text class="cls-1" transform="translate(361.38 491.69)"><tspan x="0" y="0">8</tspan></text>
  <text class="cls-1" transform="translate(539.77 323.61)"><tspan x="0" y="0">1</tspan></text>
  <text class="cls-1" transform="translate(622.15 323.61)"><tspan x="0" y="0">2</tspan></text>
  <text class="cls-1" transform="translate(703.85 323.61)"><tspan x="0" y="0">3</tspan></text>
  <text class="cls-1" transform="translate(533.13 406.16)"><tspan x="0" y="0">4</tspan></text>
  <text class="cls-1" transform="translate(621.23 406.16)"><tspan x="0" y="0">5</tspan></text>
  <text class="cls-1" transform="translate(705.38 404.98)"><tspan x="0" y="0">6</tspan></text>
  <text class="cls-1" transform="translate(537.66 489.91)"><tspan x="0" y="0">7</tspan></text>
  <text class="cls-1" transform="translate(701.74 489.91)"><tspan x="0" y="0">9</tspan></text>
  <text class="cls-1" transform="translate(25.42 581.64)"><tspan x="0" y="0">1</tspan></text>
  <text class="cls-1" transform="translate(107.8 581.64)"><tspan x="0" y="0">2</tspan></text>
  <text class="cls-1" transform="translate(189.5 581.64)"><tspan x="0" y="0">3</tspan></text>
  <text class="cls-1" transform="translate(18.78 664.19)"><tspan x="0" y="0">4</tspan></text>
  <text class="cls-1" transform="translate(106.88 664.19)"><tspan x="0" y="0">5</tspan></text>
  <text class="cls-1" transform="translate(191.03 663)"><tspan x="0" y="0">6</tspan></text>
  <text class="cls-1" transform="translate(23.31 747.93)"><tspan x="0" y="0">7</tspan></text>
  <text class="cls-1" transform="translate(105.69 747.93)"><tspan x="0" y="0">8</tspan></text>
  <text class="cls-1" transform="translate(187.39 747.93)"><tspan x="0" y="0">9</tspan></text>
  <text class="cls-1" transform="translate(278.58 579.86)"><tspan x="0" y="0">1</tspan></text>
  <text class="cls-1" transform="translate(360.97 579.86)"><tspan x="0" y="0">2</tspan></text>
  <text class="cls-1" transform="translate(442.67 579.86)"><tspan x="0" y="0">3</tspan></text>
  <text class="cls-1" transform="translate(271.94 662.41)"><tspan x="0" y="0">4</tspan></text>
  <text class="cls-1" transform="translate(360.04 662.41)"><tspan x="0" y="0">5</tspan></text>
  <text class="cls-1" transform="translate(444.2 661.22)"><tspan x="0" y="0">6</tspan></text>
  <text class="cls-1" transform="translate(276.47 746.15)"><tspan x="0" y="0">7</tspan></text>
  <text class="cls-1" transform="translate(358.85 746.15)"><tspan x="0" y="0">8</tspan></text>
  <text class="cls-1" transform="translate(440.56 746.15)"><tspan x="0" y="0">9</tspan></text>
  <text class="cls-1" transform="translate(621.04 579.85)"><tspan x="0" y="0">2</tspan></text>
  <text class="cls-1" transform="translate(702.74 579.85)"><tspan x="0" y="0">3</tspan></text>
  <text class="cls-1" transform="translate(532.01 662.41)"><tspan x="0" y="0">4</tspan></text>
  <text class="cls-1" transform="translate(620.11 662.41)"><tspan x="0" y="0">5</tspan></text>
  <text class="cls-1" transform="translate(704.27 661.22)"><tspan x="0" y="0">6</tspan></text>
  <text class="cls-1" transform="translate(536.54 746.15)"><tspan x="0" y="0">7</tspan></text>
  <text class="cls-1" transform="translate(618.92 746.15)"><tspan x="0" y="0">8</tspan></text>
  <text class="cls-1" transform="translate(700.63 746.15)"><tspan x="0" y="0">9</tspan></text>
  <text class="cls-5" transform="translate(444.2 496.36)"><tspan x="0" y="0">O</tspan></text>
  <text class="cls-5" transform="translate(613.2 498.45)"><tspan x="0" y="0">U</tspan></text>
</svg>